Cover ::
 
http://i.minus.com/iU9sQBab04yJH.png


Screen ::
 
http://i.minus.com/ibeeRa1FthQOMn.png
 
http://i.minus.com/iFUVvewdEZjud.png
 
http://i.minus.com/iS25LAfYC767A.png
 
http://i.minus.com/ivdImAGiFQsVM.png
 
http://i.minus.com/id5rT4kevpyHm.png
 
http://i.minus.com/i1yZuuaiRZqV3.png
 
http://i.minus.com/id7ImWbfIixBR.jpg


General Info::
Format                           : AVI
Format/Info                      : Audio Video Interleave
File size                        : 48.9 MiB
Duration                         : 2mn 26s
Overall bit rate                 : 2 798 Kbps


Video Info ::
ID                               : 0
Format                           : AVC
Format/Info                      : Advanced Video Codec
Format profile                   : High@L5.1
Format settings, CABAC           : Yes
Format settings, ReFrames        : 2 frames
Codec ID                         : H264
Duration                         : 10s 0ms
Bit rate                         : 2 467 Kbps
Width                            : 1 280 pixels
Height                           : 544 pixels
Display aspect ratio             : 2.35:1
Frame rate                       : 30.000 fps
Color space                      : YUV
Chroma subsampling               : 4:2:0
Bit depth                        : 8 bits
Scan type                        : Progressive
Bits/(Pixel*Frame)               : 0.118
Stream size                      : 43.1 MiB (88%)


Audio Info ::
ID                               : 1
Format                           : MPEG Audio
Format version                   : Version 1
Format profile                   : Layer 3
Codec ID                         : 55
Codec ID/Hint                    : MP3
Duration                         : 2mn 26s
Bit rate mode                    : Constant
Bit rate                         : 320 Kbps
Channel(s)                       : 2 channels
Sampling rate                    : 48.0 KHz
Compression mode                 : Lossy
Stream size                      : 5.59 MiB (11%)